# xmcd
#
# Track frame offsets:
#	150
#	15780
#	28903
#	38725
#	72008
#	97971
#	105948
#	142800
#	152297
#	163075
#	173497
#	191645
#
# Disc length: 2735 seconds
#
# Revision: 0
# Processed by: cddbd v1.5.1PL0 Copyright (c) Steve Scherf et al.
# Submitted via: EasyCDDAExtractor 7.5.0.1
#
DISCID=7d0aad0c
DTITLE=Canned Heat - Forever Gold Compilation
DYEAR=1900
DGENRE=Blues
TTITLE0=On The Road Again
TTITLE1=Same All Over
TTITLE2=Rolling And Tumbling
TTITLE3=Bullfrog Blues
TTITLE4=Dust My Broom
TTITLE5=Pretty Thing
TTITLE6=Wish You Would (Strut My Stuff)
TTITLE7=Big Road Blues
TTITLE8=Spoonful
TTITLE9=I Got My Eyes On You
TTITLE10=Let's Work Together (Live)
TTITLE11=Going Up The Country (Live)
EXTD=
EXTT0=
EXTT1=
EXTT2=
EXTT3=
EXTT4=
EXTT5=
EXTT6=
EXTT7=
EXTT8=
EXTT9=
EXTT10=
EXTT11=
PLAYORDER=
